<svg id="Layer_1" enable-background="new 0 0 511.574 511.574" height="512" viewBox="0 0 511.574 511.574" width="512" xmlns="http://www.w3.org/2000/svg"><path d="m391.749 141.135h-30v-5.174c0-58.427-47.535-105.961-105.962-105.961s-105.961 47.534-105.961 105.961v5.174h-30v-5.174c0-74.969 60.992-135.961 135.961-135.961s135.961 60.992 135.961 135.961v5.174z" fill="#ff9500"/><path d="m255.787 0v30c58.427 0 105.961 47.534 105.961 105.961v5.174h30v-5.174c.001-74.969-60.992-135.961-135.961-135.961z" fill="#ff641a"/><path d="m496.338 353.544-31.935-166.988h-417.232l-31.935 166.988c-8.751 38.534.343 78.346 24.973 109.264 24.688 30.992 61.573 48.767 101.197 48.767h228.763c39.624 0 76.508-17.774 101.197-48.767 24.629-30.918 33.723-70.73 24.972-109.264z" fill="#ff9500"/><path d="m496.338 353.544-31.935-166.988h-208.616v325.019h114.381c39.624 0 76.508-17.774 101.197-48.767 24.63-30.918 33.724-70.73 24.973-109.264z" fill="#ff641a"/><path d="m44.574 126.135v76.96l.313 1.508c8.323 40.119 30.408 76.457 62.186 102.32 31.779 25.863 71.846 40.106 112.819 40.106h71.791c40.973 0 81.04-14.243 112.819-40.106 31.778-25.863 53.863-62.201 62.186-102.32l.313-1.508v-76.96z" fill="#fabe2c"/><path d="m255.787 126.135v220.895h35.896c40.973 0 81.04-14.243 112.819-40.106 31.778-25.863 53.863-62.201 62.186-102.32l.313-1.508v-76.96h-211.214z" fill="#ff9500"/><path d="m213.035 280.157h85.504v104.006h-85.504z" fill="#fff"/><path d="m255.787 280.157h42.752v104.006h-42.752z" fill="#eceae7"/></svg>