<?xml version="1.0" encoding="iso-8859-1"?>
<!-- Generator: Adobe Illustrator 19.0.0, SVG Export Plug-In . SVG Version: 6.00 Build 0)  -->
<svg version="1.1" id="Capa_1" xmlns="http://www.w3.org/2000/svg" xmlns:xlink="http://www.w3.org/1999/xlink" x="0px" y="0px"
	 viewBox="0 0 447.216 447.216" style="enable-background:new 0 0 447.216 447.216;" xml:space="preserve">
<g>
	<g>
		<g>
			<rect x="150.465" y="269.061" style="fill:#00EFD1;" width="115.461" height="94.041"/>
			<rect x="150.465" y="72.62" style="fill:#00EFD1;" width="240.849" height="71.053"/>
		</g>
		<path style="fill:#00ACEA;" d="M104.49,230.922v136.359c-0.067,12.476-4.931,24.449-13.584,33.437
			c-8.988,8.653-20.961,13.517-33.437,13.584c-25.969,0-47.02-21.052-47.02-47.02V230.922H104.49z"/>
		<path style="fill:#D4E1F4;" d="M436.767,32.914v339.592c0,23.083-18.713,41.796-41.796,41.796H57.469
			c12.476-0.067,24.449-4.931,33.437-13.584c8.653-8.988,13.517-20.961,13.584-33.437V32.914H436.767z M391.314,143.673V72.62
			H150.465v71.053H391.314z M265.927,363.102v-94.041H150.465v94.041H265.927z"/>
	</g>
	<g>
		<path style="fill:#083863;" d="M391.314,154.122H150.465c-5.771,0-10.449-4.678-10.449-10.449V72.62
			c0-5.771,4.678-10.449,10.449-10.449h240.849c5.771,0,10.449,4.678,10.449,10.449v71.053
			C401.763,149.444,397.085,154.122,391.314,154.122z M160.914,133.225h219.951V83.069H160.914V133.225z"/>
		<path style="fill:#083863;" d="M394.971,424.751H57.469C25.73,424.751,0,399.021,0,367.282V230.922
			c0-5.771,4.678-10.449,10.449-10.449h83.592V32.914c0-5.771,4.678-10.449,10.449-10.449h332.278
			c5.771,0,10.449,4.678,10.449,10.449v339.592C447.216,401.36,423.826,424.751,394.971,424.751z M101.878,403.853h293.094
			c17.312,0,31.347-14.035,31.347-31.347V43.363h-311.38v323.918C114.917,380.611,110.305,393.526,101.878,403.853L101.878,403.853z
			 M20.898,241.371v125.91c0,20.198,16.374,36.571,36.571,36.571l0,0c9.731,0.027,19.094-3.718,26.122-10.449
			c6.731-7.028,10.476-16.391,10.449-26.122v-125.91H20.898z"/>
		<path style="fill:#083863;" d="M391.314,185.469H150.465c-5.771,0-10.449-4.678-10.449-10.449c0-5.771,4.678-10.449,10.449-10.449
			h240.849c5.771,0,10.449,4.678,10.449,10.449C401.763,180.791,397.085,185.469,391.314,185.469z"/>
		<path style="fill:#083863;" d="M391.314,216.816H150.465c-5.771,0-10.449-4.678-10.449-10.449c0-5.771,4.678-10.449,10.449-10.449
			h240.849c5.771,0,10.449,4.678,10.449,10.449C401.763,212.138,397.085,216.816,391.314,216.816z"/>
		<path style="fill:#083863;" d="M391.314,248.163H150.465c-5.771,0-10.449-4.678-10.449-10.449c0-5.771,4.678-10.449,10.449-10.449
			h240.849c5.771,0,10.449,4.678,10.449,10.449C401.763,243.485,397.085,248.163,391.314,248.163z"/>
		<path style="fill:#083863;" d="M391.314,279.51H307.2c-5.771,0-10.449-4.678-10.449-10.449c0-5.771,4.678-10.449,10.449-10.449
			h84.114c5.771,0,10.449,4.678,10.449,10.449C401.763,274.832,397.085,279.51,391.314,279.51z"/>
		<path style="fill:#083863;" d="M391.314,310.857H307.2c-5.771,0-10.449-4.678-10.449-10.449s4.678-10.449,10.449-10.449h84.114
			c5.771,0,10.449,4.678,10.449,10.449S397.085,310.857,391.314,310.857z"/>
		<path style="fill:#083863;" d="M391.314,342.204H307.2c-5.771,0-10.449-4.678-10.449-10.449c0-5.771,4.678-10.449,10.449-10.449
			h84.114c5.771,0,10.449,4.678,10.449,10.449C401.763,337.526,397.085,342.204,391.314,342.204z"/>
		<path style="fill:#083863;" d="M265.927,373.551H150.465c-5.771,0-10.449-4.678-10.449-10.449v-94.041
			c0-5.771,4.678-10.449,10.449-10.449h115.461c5.771,0,10.449,4.678,10.449,10.449v94.041
			C276.375,368.873,271.697,373.551,265.927,373.551z M160.914,352.653h94.563V279.51h-94.563V352.653z"/>
		<path style="fill:#083863;" d="M391.314,373.551H307.2c-5.771,0-10.449-4.678-10.449-10.449s4.678-10.449,10.449-10.449h84.114
			c5.771,0,10.449,4.678,10.449,10.449S397.085,373.551,391.314,373.551z"/>
	</g>
</g>
<g>
</g>
<g>
</g>
<g>
</g>
<g>
</g>
<g>
</g>
<g>
</g>
<g>
</g>
<g>
</g>
<g>
</g>
<g>
</g>
<g>
</g>
<g>
</g>
<g>
</g>
<g>
</g>
<g>
</g>
</svg>
