<svg height="512" viewBox="0 0 128 128" width="512" xmlns="http://www.w3.org/2000/svg"><g><g><path d="m114.3 105.5c-20.817 7.825-35.111-6.438-31.757-14.12 8.057-5.59 32.191-2.768 31.757 14.12z" fill="#bae543"/><path d="m13.7 105.5c20.817 7.825 35.111-6.438 31.757-14.12-8.057-5.59-32.191-2.768-31.757 14.12z" fill="#bae543"/><path d="m98.544 116.254c-21.8 4.377-33.619-12-29.074-19.04 8.853-4.222 32.219 2.443 29.074 19.04z" fill="#a5cc2a"/><path d="m29.456 116.254c21.8 4.377 33.619-12 29.074-19.04-8.853-4.222-32.219 2.443-29.074 19.04z" fill="#a5cc2a"/><path d="m64 121.5c-22.88-8.437-12.288-24.346 0-26.294 12.288 1.948 22.88 17.857 0 26.294z" fill="#bae543"/><path d="m121.5 25.833s-13.917-.762-25.75 14.238c-14.875 18.179-31.75 63.737-31.75 63.737 23 0 55.208-10.262 55.719-42.9s1.781-35.075 1.781-35.075z" fill="#f7502f"/><path d="m70.521 35.25c4.075-19.167 32.416-24.083 32.416-24.083-1.768 13.833 10.947 43.166-4.377 65.5s-34.56 27.141-34.56 27.141 2.154-48.654 6.521-68.558z" fill="#d93922"/><path d="m6.5 25.833s13.917-.762 25.75 14.238c14.875 18.179 31.75 63.737 31.75 63.737-23 0-55.208-10.262-55.719-42.9s-1.781-35.075-1.781-35.075z" fill="#f7502f"/><path d="m57.479 35.25c-4.079-19.167-32.416-24.083-32.416-24.083 1.768 13.833-10.947 43.166 4.377 65.5s34.56 27.141 34.56 27.141-2.154-48.654-6.521-68.558z" fill="#d93922"/><path d="m64 103.808s-19.9-21.783-19.9-48.654 19.9-48.654 19.9-48.654 19.9 21.783 19.9 48.654-19.9 48.654-19.9 48.654z" fill="#f7502f"/></g><g fill="#230602"><path d="m123.021 24.965a1.749 1.749 0 0 0 -1.425-.882c-.315-.014-7.213-.313-15.509 4.546-.047-.324-.095-.649-.142-.97-.96-6.547-1.79-12.2-1.269-16.267a1.749 1.749 0 0 0 -2.034-1.946c-.692.119-16.142 2.89-26.117 12.278a87.507 87.507 0 0 0 -11.233-16.4 1.807 1.807 0 0 0 -2.584 0 87.466 87.466 0 0 0 -11.237 16.409 43.028 43.028 0 0 0 -11.2-7.4 1.75 1.75 0 1 0 -1.496 3.167 38.419 38.419 0 0 1 11.034 7.5c-4.039 8.339-7.463 18.758-7.463 30.158a63.943 63.943 0 0 0 3.254 19.652 1.75 1.75 0 1 0 3.33-1.077 60.465 60.465 0 0 1 -3.083-18.579c0-21.9 13.809-40.6 18.155-45.946 4.348 5.338 18.153 24.021 18.153 45.946 0 21.9-13.813 40.607-18.156 45.948a90.426 90.426 0 0 1 -8.811-13.093 1.75 1.75 0 0 0 -3.062 1.7 96.4 96.4 0 0 0 6.494 10.164c-6.71-3.136-18.066-10.098-27.737-24.193-10.163-14.82-7.5-32.948-5.365-47.513.828-5.647 1.563-10.656 1.456-14.794 1.057.255 2.438.62 4.018 1.113a1.75 1.75 0 1 0 1.043-3.34 57.217 57.217 0 0 0 -6.676-1.7 1.749 1.749 0 0 0 -2.035 1.946c.521 4.067-.309 9.72-1.269 16.267-.047.321-.095.646-.142.97-8.294-4.858-15.193-4.558-15.513-4.546a1.75 1.75 0 0 0 -1.535 2.381c.1.373 1.2 4.968 1.661 34.463.215 13.524 5.635 23.23 13.413 30.073a16.07 16.07 0 0 0 -7.988 14.547 1.748 1.748 0 0 0 1.134 1.593 35.172 35.172 0 0 0 12.384 2.386c.818 0 1.629-.038 2.434-.1a16.3 16.3 0 0 0 -.162 7.159 1.751 1.751 0 0 0 1.375 1.387 37.87 37.87 0 0 0 7.436.758 29.316 29.316 0 0 0 14.61-3.667c1.984 2.674 5.615 5.644 12.233 8.085a1.751 1.751 0 0 0 1.211 0c5.763-2.127 9.872-4.844 12.249-8.09a29.257 29.257 0 0 0 14.6 3.672 37.811 37.811 0 0 0 7.43-.758 1.75 1.75 0 0 0 1.374-1.389 16.373 16.373 0 0 0 -.182-7.16c.78.062 1.567.1 2.362.1a35.579 35.579 0 0 0 12.477-2.377 1.749 1.749 0 0 0 1.133-1.593 15.765 15.765 0 0 0 -3.287-10.378 1.75 1.75 0 1 0 -2.762 2.143 12.107 12.107 0 0 1 2.534 6.955 29.235 29.235 0 0 1 -13.934 1.444 18.685 18.685 0 0 0 -5.183-5.817c14.827-6.118 27.724-17.941 28.053-38.968.461-29.495 1.557-34.09 1.661-34.463a1.748 1.748 0 0 0 -.11-1.504zm-44.827.035c7.086-7.162 18.146-10.487 22.832-11.626-.107 4.138.628 9.144 1.456 14.79 2.138 14.565 4.8 32.693-5.365 47.513-9.655 14.073-20.991 21.035-27.7 24.174 5.961-8.1 16.241-24.936 16.241-44.7-.004-11.393-3.426-21.81-7.464-30.151zm-68.164 35.873c-.255-16.3-.768-28.07-1.421-33.2a29.7 29.7 0 0 1 12.765 4.727c-1.967 14.24-3.204 30.931 6.626 45.26a74.544 74.544 0 0 0 25.666 23.677c-19.36-2.648-43.209-13.137-43.636-40.464zm5.435 43.4c.3-5.778 3.959-9.08 7.388-10.92a54.708 54.708 0 0 0 11.725 6.54 18.755 18.755 0 0 0 -5.185 5.818 29.193 29.193 0 0 1 -13.928-1.438zm15.535 10.481a12.005 12.005 0 0 1 1.1-6.688 16.038 16.038 0 0 1 6.521-6.66 77.228 77.228 0 0 0 10.9 2.8 10.885 10.885 0 0 0 -.121 7.594c.022.063.051.129.075.193-5.12 2.938-11.583 3.907-18.475 2.761zm33 4.876c-6.159-2.373-10.062-5.475-11.3-8.992a7.627 7.627 0 0 1 .374-5.853 80.361 80.361 0 0 0 10.926.775 80.283 80.283 0 0 0 10.931-.776 7.582 7.582 0 0 1 -.094 6.92c-.029.044-.057.089-.082.136-1.618 3.012-5.331 5.698-10.755 7.79zm33-4.875c-6.893 1.148-13.351.173-18.462-2.769a10.941 10.941 0 0 0 -.069-7.774 76.884 76.884 0 0 0 10.924-2.81c3.469 2.06 8.376 6.268 7.607 13.353zm20.97-53.882c-.427 27.327-24.27 37.811-43.626 40.461a74.564 74.564 0 0 0 25.656-23.674c9.827-14.329 8.59-31.02 6.623-45.263a29.9 29.9 0 0 1 12.764-4.712c-.65 5.131-1.162 16.901-1.417 33.188z"/><path d="m50.912 85.233a1.75 1.75 0 0 0 1.588-2.492c-.529-1.13-1.035-2.277-1.5-3.41a1.75 1.75 0 0 0 -3.235 1.338c.489 1.182 1.017 2.378 1.568 3.556a1.751 1.751 0 0 0 1.579 1.008z"/><path d="m73.735 36.027a1.751 1.751 0 0 0 1.632-2.381c-.707-1.831-1.509-3.689-2.384-5.521a1.75 1.75 0 1 0 -3.158 1.507c.836 1.752 1.6 3.527 2.278 5.275a1.749 1.749 0 0 0 1.632 1.12z"/></g></g></svg>