<svg id="Layer_1" enable-background="new 0 0 511.852 511.852" height="512" viewBox="0 0 511.852 511.852" width="512" xmlns="http://www.w3.org/2000/svg"><path d="m26.749 130.168 229.103 8.459 229.103-8.459c-23.612-40.155-66.435-67.147-115.348-67.147-23.604 0-45.789 6.25-65.082 17.231-30.147 17.158-67.199 17.158-97.346 0-19.293-10.981-41.478-17.231-65.082-17.231-48.913.001-91.737 26.993-115.348 67.147z" fill="#ef7d92"/><path d="m7.433 198.703 247.372 9.849 249.464-9.849c-.8-24.34-7.683-48.938-19.139-68.535h-458.558c-11.456 19.597-18.338 44.196-19.139 68.535z" fill="#f7ad55"/><path d="m7.345 198.703c0 22.622 5.249 46.493 14.262 65.451l234.244 11.43 233.027-11.43c9.747-19.332 15.479-43.271 15.479-65.451 0-1.497-.031 1.486-.077 0h-496.858c-.046 1.486-.077-1.497-.077 0z" fill="#f9ef90"/><path d="m73.575 331.148 181.23 7.61 181.227-7.61c21.664-20.191 40.36-42.659 52.693-66.993h-466.97c11.897 24.886 30.283 47.189 51.82 66.993z" fill="#7ce0cf"/><path d="m165.101 398.141 91.161 7.649 91.146-7.649c29.611-19.44 61.241-41.842 88.291-66.993h-361.788c27.61 25.321 60.344 47.367 91.19 66.993z" fill="#99ddfc"/><path d="m291.34 437.182c16.002-11.618 34.083-24.925 55.599-39.041h-181.354c21.527 13.69 37.928 26.422 54.152 38.54 21.188 15.827 50.201 16.039 71.603.501z" fill="#b9a0db"/><path d="m147.598 112.232c8.763-17.799 22.832-31.322 39.371-41.313-14.038-5.105-29.137-7.896-44.872-7.896-48.913 0-91.736 26.992-115.348 67.147l113.027 4.173c1.793-7.594 4.322-15.003 7.822-22.111z" fill="#eb6773"/><path d="m137.385 201.943c-1.906-23.659-2.909-48.685 3.459-71.775h-114.272c-11.456 19.597-18.339 44.195-19.139 68.535l130.12 5.181c-.056-.647-.116-1.293-.168-1.941z" fill="#f49634"/><path d="m148.182 254.466c-6.155-16.89-9.356-34.642-10.797-52.522-.087-1.077-.171-2.158-.253-3.24h-129.71c-.046 1.486-.077-1.497-.077 0 0 22.622 5.249 46.493 14.262 65.451l133.219 6.5c-2.404-5.326-4.65-10.717-6.644-16.189z" fill="#f4d37f"/><path d="m172.348 304.034c-7.549-12.812-14.591-26.11-20.346-39.879h-130.247c11.897 24.887 30.283 47.189 51.82 66.993l119.613 5.023c-7.384-10.436-14.364-21.146-20.84-32.137z" fill="#55cb94"/><path d="m239.6 392.942c-18.019-19.339-34.885-39.967-49.92-61.795h-115.769c27.61 25.321 60.344 47.367 91.19 66.993l86.794 7.283c-4.198-4.055-8.309-8.203-12.295-12.481z" fill="#66cdf7"/><path d="m244.564 398.141h-78.979c21.527 13.69 37.928 26.422 54.152 38.54 20.756 15.504 49.013 16.014 70.276 1.424-15.976-12.386-31.357-25.504-45.449-39.964z" fill="#928fd4"/><path d="m511.852 201.788c0-26.296-7.101-52.889-20.438-75.572-38.481-65.44-124-90.384-190.6-52.477-27.733 15.784-62.19 15.784-89.924 0-15.959-9.083-33.235-14.844-51.348-17.123-4.111-.515-7.86 2.396-8.377 6.505-.517 4.11 2.396 7.86 6.505 8.377 16.15 2.032 31.56 7.171 45.8 15.276 32.311 18.39 72.453 18.39 104.764 0 38.391-21.851 86.722-21.392 124.704 1.14 14.805 8.783 27.787 20.604 38.092 34.603h-430.349c21.221-28.777 53.425-47.661 88.444-51.317 4.12-.43 7.111-4.119 6.681-8.238-.43-4.12-4.119-7.115-8.238-6.681-44.134 4.608-84.238 30.752-107.278 69.935-25.317 43.059-26.78 96.445-5.295 141.327 11.346 23.734 28.849 46.294 53.508 68.97.073.067.151.125.226.189.042.04.075.086.118.126 28.921 26.523 62.772 48.741 92.231 67.484.086.055.181.094.269.146.075.052.138.114.215.163 18.991 12.078 33.983 23.309 48.481 34.169 25.608 19.654 59.516 24.319 86.538 3.85 15.691-11.393 33.476-24.305 54.469-38.077.075-.049.137-.112.21-.164.086-.052.178-.09.261-.146 26.493-17.393 60.583-40.779 89.28-67.46.041-.039.073-.084.114-.123.074-.064.153-.123.225-.19 24.753-23.069 42.504-45.567 54.268-68.781 10.291-20.284 16.444-43.103 16.444-65.911zm-27.673 54.713h-457.744c-7.274-16.65-11.152-34.001-11.549-51.684h481.927c-.443 17.321-4.686 34.673-12.634 51.684zm-453.217-118.675h449.778c8.595 15.874 13.902 33.534 15.548 51.684h-480.874c1.646-18.151 6.953-35.811 15.548-51.684zm256.807 292.675c-21.776 16.533-48.294 12.03-68.731-3.717-9.087-6.807-18.366-13.758-28.715-20.993h132.08c-12.716 8.796-24.139 17.09-34.634 24.71zm57.392-40.018h-177.872c-23.432-14.933-49.513-32.069-73.297-51.684h321.906c-23.677 19.987-49.513 37.711-70.737 51.684zm87.897-66.991h-356.536c-18.363-17.184-32.317-34.203-42.352-51.684h441.826c-10.349 17.203-24.499 34.226-42.938 51.684z"/></svg>