<svg id="Layer_3" enable-background="new 0 0 64 64" height="512" viewBox="0 0 64 64" width="512" xmlns="http://www.w3.org/2000/svg"><path d="m46 1v3.938c0 5.283 1.379 10.475 4 15.062 2.621 4.587 4 9.779 4 15.062 0 6.613-.578 13.212-1.727 19.724l-1.273 7.214h-15l-.367-2.204c-1.087-6.519-1.633-13.118-1.633-19.728v-.068l-2-2-2 2v.068c0 6.61-.546 13.208-1.633 19.728l-.367 2.204h-15l-1.273-7.213c-1.149-6.512-1.727-13.112-1.727-19.725 0-5.283 1.379-10.475 4-15.062 2.621-4.587 4-9.779 4-15.062v-3.938" fill="#efbe9a"/><path d="m12.016 62.174-1.273-7.214c-1.157-6.554-1.743-13.248-1.743-19.898 0-5.448 1.429-10.828 4.132-15.559 2.53-4.428 3.868-9.465 3.868-14.565v-3.938h2v3.938c0 5.448-1.429 10.828-4.132 15.559-2.53 4.428-3.868 9.465-3.868 14.565 0 6.533.576 13.111 1.711 19.55l1.273 7.214z"/><path d="m51.984 62.174-1.969-.348 1.273-7.214c1.136-6.438 1.712-13.016 1.712-19.55 0-5.101-1.338-10.138-3.868-14.566-2.703-4.73-4.132-10.11-4.132-15.558v-3.938h2v3.938c0 5.101 1.338 10.138 3.868 14.566 2.703 4.73 4.132 10.11 4.132 15.558 0 6.649-.586 13.344-1.742 19.897z"/><path d="m28.986 62.164-1.973-.328.367-2.204c1.075-6.445 1.62-13.028 1.62-19.564l2-.068c0 6.715-.554 13.407-1.646 19.96z"/><path d="m35.014 62.164-.367-2.204c-1.093-6.553-1.647-13.245-1.647-19.892l2-.068c0 6.604.545 13.187 1.619 19.632l.367 2.204z"/><path d="m40.64 43h-.497c-2.938 0-5.701-1.145-7.778-3.222l-.365-.364-.364.364c-2.077 2.077-4.84 3.222-7.779 3.222h-.497c-1.698 0-3.399-.401-4.919-1.161l-3.889-1.944.895-1.789 3.889 1.944c1.243.622 2.635.95 4.024.95h.497c2.404 0 4.664-.937 6.364-2.636l1.071-1.071c.391-.391 1.023-.391 1.414 0l1.071 1.071c1.7 1.699 3.96 2.636 6.364 2.636h.497c1.39 0 2.781-.328 4.024-.95l3.889-1.944.895 1.789-3.889 1.944c-1.518.76-3.219 1.161-4.917 1.161z"/><path d="m31 26h2v12h-2z"/><path d="m33 24h-2c0-4.411 3.589-8 8-8h2v2h-2c-3.309 0-6 2.691-6 6z"/><path d="m33 24h-2c0-3.309-2.691-6-6-6h-2v-2h2c4.411 0 8 3.589 8 8z"/></svg>